<svg width="8" height="8" viewBox="0 0 8 8" fill="none" xmlns="http://www.w3.org/2000/svg">
<path fill-rule="evenodd" clip-rule="evenodd" d="M7.85352 0.146446C7.65826 -0.0488153 7.34168 -0.0488153 7.14642 0.146446L3.99998 3.29288L0.85355 0.146446C0.658289 -0.0488153 0.341707 -0.0488153 0.146446 0.146446C-0.0488153 0.341707 -0.0488153 0.658289 0.146446 0.85355L3.29288 3.99998L0.146446 7.14642C-0.0488153 7.34168 -0.0488153 7.65826 0.146446 7.85352C0.341707 8.04878 0.658289 8.04878 0.85355 7.85352L3.99998 4.70709L7.14642 7.85352C7.34168 8.04878 7.65826 8.04878 7.85352 7.85352C8.04878 7.65826 8.04878 7.34168 7.85352 7.14642L4.70709 3.99998L7.85352 0.85355C8.04878 0.658289 8.04878 0.341707 7.85352 0.146446Z" fill="#FF2D55"/>
</svg>
